<svg xmlns="http://www.w3.org/2000/svg">

  <symbol id="left-arrow" viewBox="0 0 63 30">
    <path d="M63 15L1 15M1 15L1.74058 15.0329C9.39159 15.3725 15.588 21.3647 16.1837 29V29M1 15V15C8.9167 15 15.5953 8.89481 16.1837 1V1" fill="none" stroke-width="2.5"/>
  </symbol>

  <symbol id="right-arrow" viewBox="0 0 63 30">
    <path d="M0 15H62M62 15L61.2594 14.9671C53.6084 14.6275 47.412 8.63534 46.8163 1V1M62 15V15C54.0833 15 47.4047 21.1052 46.8163 29V29" fill="none" stroke-width="2.5"/>
  </symbol>


  <symbol id="search" viewBox="0 0 13.35 13.35">
    <path fill-rule="evenodd" clip-rule="evenodd" d="M5.5 9.99997C7.98528 9.99997 10 7.98525 10 5.49997C10 3.01469 7.98528 0.999969 5.5 0.999969C3.01472 0.999969 1 3.01469 1 5.49997C1 7.98525 3.01472 9.99997 5.5 9.99997ZM5.5 11C8.53757 11 11 8.53754 11 5.49997C11 2.4624 8.53757 -3.05176e-05 5.5 -3.05176e-05C2.46243 -3.05176e-05 0 2.4624 0 5.49997C0 8.53754 2.46243 11 5.5 11Z"/>
    <path fill-rule="evenodd" clip-rule="evenodd" d="M12.6464 13.3535L8.64645 9.35354L9.35355 8.64643L13.3536 12.6464L12.6464 13.3535Z" />
  </symbol>



  <symbol id="search-dark"  viewBox="0 0 15 14">
    <path fill-rule="evenodd" clip-rule="evenodd" d="M6.24609 10C8.73138 10 10.7461 7.98528 10.7461 5.5C10.7461 3.01472 8.73138 1 6.24609 1C3.76081 1 1.74609 3.01472 1.74609 5.5C1.74609 7.98528 3.76081 10 6.24609 10ZM6.24609 11C9.28366 11 11.7461 8.53757 11.7461 5.5C11.7461 2.46243 9.28366 0 6.24609 0C3.20853 0 0.746094 2.46243 0.746094 5.5C0.746094 8.53757 3.20853 11 6.24609 11Z" fill="#292929"/>
    <path fill-rule="evenodd" clip-rule="evenodd" d="M13.3925 13.3536L9.39254 9.35357L10.0996 8.64646L14.0996 12.6465L13.3925 13.3536Z" fill="#292929"/>
  </symbol>


  <symbol id="search-dark-mini" viewBox="0 0 14 14" >
    <path fill-rule="evenodd" clip-rule="evenodd" d="M5.5 10C7.98528 10 10 7.98528 10 5.5C10 3.01472 7.98528 1 5.5 1C3.01472 1 1 3.01472 1 5.5C1 7.98528 3.01472 10 5.5 10ZM5.5 11C8.53757 11 11 8.53757 11 5.5C11 2.46243 8.53757 0 5.5 0C2.46243 0 0 2.46243 0 5.5C0 8.53757 2.46243 11 5.5 11Z" fill="#292929"/>
    <path fill-rule="evenodd" clip-rule="evenodd" d="M12.6464 13.3536L8.64645 9.35357L9.35355 8.64646L13.3536 12.6465L12.6464 13.3536Z" fill="#292929"/>
  </symbol>


</svg>