<svg width="116" height="12" viewBox="0 0 116 12" fill="none" xmlns="http://www.w3.org/2000/svg">
<g clip-path="url(#clip0)">
<path d="M4.64076 11.6192L3.33391 9.64123H1.94176V11.6192H0V3.68457H3.86012C5.48405 3.68457 6.70558 5.07672 6.70558 6.81162C6.70558 7.95917 6.1318 8.77453 5.28851 9.2275L7.03474 11.6207L4.64076 11.6192ZM1.94176 7.89575H3.55436C4.20137 7.89575 4.7389 7.46769 4.7389 6.80861C4.7389 6.49771 4.6155 6.19953 4.39581 5.97955C4.17611 5.75958 3.87809 5.6358 3.5672 5.6354H1.94176V7.89575Z" fill="#292929"/>
<path d="M17.0264 10.5328H13.1761L12.6385 11.6192H10.4922L14.4391 3.68457H15.8804L19.6778 11.6222H17.5639L17.0264 10.5328ZM16.2812 8.98139L15.0967 6.42961L13.9726 8.98139H16.2812Z" fill="#292929"/>
<path d="M31.0226 7.63831C31.0239 8.1605 30.9222 8.67782 30.7233 9.16065C30.5244 9.64348 30.2322 10.0823 29.8635 10.4521C29.4948 10.8219 29.0567 11.1153 28.5745 11.3156C28.0922 11.5158 27.5752 11.619 27.053 11.6192H23.291V3.68457H27.053C29.4832 3.68457 31.0226 5.45269 31.0226 7.63831ZM29.1171 7.63831C29.1171 6.45302 28.2375 5.58708 27.2365 5.58708H25.1981V9.71446H27.2365C28.2255 9.67746 29.1171 8.82285 29.1171 7.63831Z" fill="#292929"/>
<path d="M42.5877 3.68457V7.58018C42.5877 10.1327 40.8052 11.8306 38.5584 11.8306C36.2988 11.8306 34.5156 10.1327 34.5156 7.58018V3.68457H36.4574V7.58018C36.4574 8.82586 37.3369 9.86469 38.5584 9.86469C39.7664 9.86469 40.6459 8.82586 40.6459 7.58018V3.68457H42.5877Z" fill="#292929"/>
<path d="M54.166 10.1296H54.154C53.7282 10.7033 53.1626 11.1585 52.5112 11.4518C51.8597 11.7451 51.144 11.8667 50.4323 11.8052C49.7205 11.7436 49.0363 11.5009 48.4449 11.1001C47.8535 10.6993 47.3745 10.1538 47.0535 9.51548C46.7326 8.8772 46.5804 8.16738 46.6114 7.45362C46.6424 6.73986 46.8555 6.04591 47.2306 5.43785C47.6057 4.82979 48.1302 4.32786 48.7541 3.97985C49.3781 3.63184 50.0807 3.44933 50.7951 3.44971C52.176 3.44971 53.2993 4.02348 54.0694 5.06231L52.6146 5.99015C52.1269 5.53718 51.5894 5.28049 50.7951 5.28049C50.4067 5.28118 50.0245 5.37806 49.6826 5.5625C49.3408 5.74693 49.05 6.01317 48.8361 6.33743C48.6222 6.66168 48.492 7.03386 48.4571 7.42072C48.4222 7.80757 48.4836 8.19705 48.6359 8.55437C48.7882 8.91169 49.0267 9.22572 49.33 9.4684C49.6333 9.71108 49.9919 9.87487 50.374 9.94512C50.756 10.0154 51.1494 9.98991 51.5192 9.871C51.889 9.75208 52.2236 9.54343 52.493 9.26368V8.43322H50.087V6.90592H54.1638L54.166 10.1296Z" fill="#292929"/>
<path d="M63.813 10.5328H59.9687L59.4342 11.6192H57.2803L61.225 3.68457H62.6662L66.4659 11.6222H64.352L63.813 10.5328ZM63.0686 8.98139L61.8848 6.42961L60.7599 8.98139H63.0686Z" fill="#292929"/>
<path d="M83.343 10.1296H83.3317C82.906 10.7032 82.3406 11.1583 81.6893 11.4516C81.0379 11.7449 80.3224 11.8667 79.6107 11.8052C78.8991 11.7438 78.215 11.5013 77.6236 11.1007C77.0321 10.7001 76.5531 10.1549 76.2319 9.51683C75.9108 8.87878 75.7583 8.16915 75.789 7.45551C75.8197 6.74186 76.0325 6.04793 76.4072 5.43978C76.7818 4.83162 77.3059 4.32948 77.9295 3.98113C78.5531 3.63279 79.2555 3.44985 79.9698 3.44971C81.3514 3.44971 82.4733 4.02348 83.2418 5.06231L81.7901 5.99015C81.3031 5.53718 80.7626 5.28049 79.9698 5.28049C79.5814 5.28118 79.1992 5.37806 78.8574 5.5625C78.5155 5.74693 78.2247 6.01317 78.0108 6.33742C77.797 6.66168 77.6667 7.03386 77.6318 7.42072C77.5969 7.80757 77.6583 8.19705 77.8106 8.55437C77.9629 8.91169 78.2014 9.22572 78.5047 9.4684C78.808 9.71108 79.1666 9.87487 79.5487 9.94512C79.9307 10.0154 80.3242 9.98991 80.6939 9.87099C81.0637 9.75208 81.3983 9.54343 81.6678 9.26367V8.43322H79.2617V6.90592H83.3385L83.343 10.1296Z" fill="#292929"/>
<path d="M92.3566 11.6192L91.0482 9.64123H89.6583V11.6192H87.7158V3.68457H91.5759C93.1999 3.68457 94.4214 5.07672 94.4214 6.81162C94.4214 7.95917 93.8476 8.77453 93.0028 9.2275L94.7506 11.6207L92.3566 11.6192ZM89.6583 7.89575H91.2709C91.9179 7.89575 92.454 7.46769 92.454 6.80861C92.4541 6.65457 92.4238 6.50203 92.3649 6.35969C92.3061 6.21736 92.2197 6.08802 92.1108 5.97906C92.0019 5.87011 91.8727 5.78368 91.7304 5.72472C91.5881 5.66575 91.4355 5.6354 91.2815 5.6354H89.6583V7.89575Z" fill="#292929"/>
<path d="M100.818 5.39154V6.80861H104.029V8.50576H100.818V9.92283H104.883V11.6192H98.9092V3.68457H104.883V5.39456L100.818 5.39154Z" fill="#292929"/>
<path d="M116 11.6192H109.333V9.67746L113.325 5.53725H109.333V3.68457H116V5.54027L111.848 9.68048H116V11.6192Z" fill="#292929"/>
<path d="M99.8344 1.87222C99.8238 1.84051 99.8148 1.80955 99.808 1.77935C99.7483 1.52946 99.8638 1.30373 100.019 1.11499C100.125 0.977663 100.274 0.880242 100.442 0.838672C100.514 0.819242 100.59 0.820103 100.661 0.841158C100.733 0.862213 100.797 0.902641 100.847 0.957957C100.962 1.06969 101.02 1.02892 101.162 1.11423C101.635 1.39659 101.452 2.00509 101.171 2.24668C101.014 2.38257 100.74 2.48977 100.578 2.39767C100.45 2.32217 100.276 2.35313 100.136 2.30103C99.9718 2.23686 99.8895 2.03604 99.8344 1.87222Z" fill="#292929"/>
<path d="M102.455 2.05327C102.515 2.15188 102.595 2.23615 102.691 2.30008C102.787 2.36401 102.896 2.40605 103.01 2.4232C103.075 2.43638 103.141 2.43944 103.206 2.43226C103.499 2.39376 103.706 2.27297 103.816 2.08347C103.927 1.89398 103.952 1.7309 103.912 1.46516C103.877 1.31072 103.795 1.1707 103.678 1.06352C103.626 1.00748 103.559 0.968074 103.485 0.950272C103.396 0.932908 103.317 0.99255 103.23 0.990285C103.124 0.990285 103.036 0.934418 102.928 0.931398C102.656 0.925358 102.635 1.03105 102.486 1.21828C102.303 1.45383 102.316 1.78753 102.455 2.05327Z" fill="#292929"/>
</g>
<defs>
<clipPath id="clip0">
<rect width="116" height="11.0021" fill="white" transform="translate(0 0.826172)"/>
</clipPath>
</defs>
</svg>
