<svg width="169" height="17" viewBox="0 0 169 17" fill="none" xmlns="http://www.w3.org/2000/svg">
<g clip-path="url(#clip0)">
<path d="M6.74892 16.1959L4.84842 13.3193H2.82385V16.1959H0V4.65674H5.61367C7.9753 4.65674 9.75173 6.6813 9.75173 9.20432C9.75173 10.8732 8.91731 12.0589 7.69093 12.7177L10.2304 16.1981L6.74892 16.1959ZM2.82385 10.7809H5.16901C6.10993 10.7809 6.89165 10.1584 6.89165 9.19994C6.89165 8.74781 6.71219 8.31417 6.3927 7.99427C6.07321 7.67436 5.6398 7.49435 5.18768 7.49377H2.82385V10.7809Z" fill="#E1DFD3"/>
<path d="M24.7603 14.616H19.1609L18.3792 16.1959H15.2578L20.9977 4.65674H23.0937L28.6162 16.2003H25.542L24.7603 14.616ZM23.6767 12.3597L21.954 8.64878L20.3192 12.3597H23.6767Z" fill="#E1DFD3"/>
<path d="M45.1147 10.4065C45.1165 11.166 44.9686 11.9183 44.6794 12.6204C44.3901 13.3226 43.9652 13.9608 43.429 14.4986C42.8928 15.0363 42.2558 15.4631 41.5544 15.7543C40.8531 16.0455 40.1012 16.1956 39.3418 16.1959H33.8708V4.65674H39.3418C42.876 4.65674 45.1147 7.22807 45.1147 10.4065ZM42.3435 10.4065C42.3435 8.68281 41.0644 7.4235 39.6086 7.4235H36.6442V13.4258H39.6086C41.0469 13.372 42.3435 12.1292 42.3435 10.4065Z" fill="#E1DFD3"/>
<path d="M61.9337 4.65674V10.322C61.9337 14.0341 59.3415 16.5033 56.0741 16.5033C52.7881 16.5033 50.1948 14.0341 50.1948 10.322V4.65674H53.0186V10.322C53.0186 12.1336 54.2977 13.6443 56.0741 13.6443C57.8308 13.6443 59.1099 12.1336 59.1099 10.322V4.65674H61.9337Z" fill="#E1DFD3"/>
<path d="M78.7726 14.0298H78.755C78.1358 14.8642 77.3134 15.5261 76.366 15.9526C75.4186 16.3791 74.3778 16.5561 73.3426 16.4665C72.3075 16.377 71.3125 16.024 70.4525 15.4411C69.5924 14.8583 68.8958 14.065 68.429 13.1367C67.9623 12.2085 67.7409 11.1762 67.786 10.1382C67.8311 9.1002 68.1411 8.09101 68.6866 7.20673C69.232 6.32244 69.9948 5.5925 70.9022 5.0864C71.8095 4.5803 72.8314 4.31488 73.8703 4.31543C75.8784 4.31543 77.5121 5.14985 78.632 6.66059L76.5163 8.00993C75.8071 7.35118 75.0254 6.97789 73.8703 6.97789C73.3055 6.97889 72.7496 7.11978 72.2525 7.388C71.7553 7.65622 71.3324 8.0434 71.0214 8.51496C70.7104 8.98651 70.521 9.52777 70.4702 10.0904C70.4194 10.6529 70.5088 11.2194 70.7303 11.739C70.9518 12.2586 71.2986 12.7153 71.7396 13.0682C72.1807 13.4212 72.7023 13.6594 73.2578 13.7615C73.8134 13.8637 74.3856 13.8267 74.9234 13.6537C75.4611 13.4808 75.9477 13.1774 76.3396 12.7705V11.5628H72.8405V9.34171H78.7693L78.7726 14.0298Z" fill="#E1DFD3"/>
<path d="M92.8018 14.616H87.2112L86.4338 16.1959H83.3015L89.0381 4.65674H91.134L96.6599 16.2003H93.5857L92.8018 14.616ZM91.7192 12.3597L89.9977 8.64878L88.3618 12.3597H91.7192Z" fill="#E1DFD3"/>
<path d="M121.203 14.0298H121.186C120.567 14.864 119.745 15.5258 118.798 15.9524C117.851 16.3789 116.81 16.556 115.775 16.4666C114.74 16.3773 113.745 16.0246 112.885 15.4421C112.025 14.8595 111.328 14.0666 110.861 13.1387C110.394 12.2108 110.173 11.1788 110.217 10.141C110.262 9.10311 110.571 8.09396 111.116 7.20953C111.661 6.32511 112.423 5.59485 113.33 5.08827C114.237 4.58169 115.258 4.31563 116.297 4.31543C118.306 4.31543 119.938 5.14985 121.056 6.66059L118.944 8.00993C118.236 7.35118 117.45 6.97789 116.297 6.97789C115.732 6.97889 115.177 7.11978 114.679 7.388C114.182 7.65622 113.759 8.0434 113.448 8.51496C113.137 8.98651 112.948 9.52777 112.897 10.0904C112.846 10.6529 112.936 11.2194 113.157 11.739C113.379 12.2586 113.725 12.7153 114.167 13.0682C114.608 13.4212 115.129 13.6594 115.685 13.7615C116.24 13.8637 116.813 13.8267 117.35 13.6537C117.888 13.4808 118.375 13.1774 118.767 12.7705V11.5628H115.267V9.34171H121.196L121.203 14.0298Z" fill="#E1DFD3"/>
<path d="M134.312 16.1959L132.409 13.3193H130.388V16.1959H127.563V4.65674H133.177C135.538 4.65674 137.315 6.6813 137.315 9.20432C137.315 10.8732 136.48 12.0589 135.252 12.7177L137.793 16.1981L134.312 16.1959ZM130.388 10.7809H132.733C133.674 10.7809 134.454 10.1584 134.454 9.19994C134.454 8.97593 134.41 8.75409 134.324 8.54709C134.238 8.3401 134.113 8.152 133.955 7.99356C133.796 7.83511 133.608 7.70942 133.401 7.62366C133.194 7.53791 132.973 7.49377 132.749 7.49377H130.388V10.7809Z" fill="#E1DFD3"/>
<path d="M146.617 7.13914V9.19994H151.287V11.6681H146.617V13.7289H152.529V16.1959H143.841V4.65674H152.529V7.14353L146.617 7.13914Z" fill="#E1DFD3"/>
<path d="M168.696 16.1959H159V13.372L164.806 7.35103H159V4.65674H168.696V7.35543L162.657 13.3764H168.696V16.1959Z" fill="#E1DFD3"/>
<path d="M145.186 2.0219C145.17 1.97578 145.157 1.93077 145.147 1.88685C145.061 1.52344 145.229 1.19516 145.455 0.920683C145.608 0.720975 145.825 0.579298 146.07 0.518844C146.174 0.490588 146.284 0.491839 146.388 0.522459C146.492 0.553079 146.586 0.611873 146.658 0.692317C146.826 0.854809 146.909 0.795519 147.117 0.919584C147.804 1.33021 147.537 2.21513 147.13 2.56647C146.902 2.76409 146.502 2.92 146.267 2.78605C146.081 2.67626 145.828 2.72127 145.625 2.64552C145.386 2.55219 145.266 2.26015 145.186 2.0219Z" fill="#E1DFD3"/>
<path d="M148.998 2.28421C149.084 2.42762 149.202 2.55016 149.341 2.64314C149.481 2.73612 149.639 2.79725 149.805 2.82219C149.899 2.84135 149.995 2.8458 150.09 2.83537C150.516 2.77937 150.817 2.60371 150.977 2.32813C151.138 2.05255 151.175 1.8154 151.117 1.42893C151.065 1.20434 150.946 1.00072 150.776 0.844837C150.701 0.76335 150.603 0.706038 150.495 0.680149C150.366 0.654897 150.252 0.741632 150.124 0.738338C149.97 0.738338 149.843 0.657092 149.685 0.652701C149.29 0.643917 149.259 0.797625 149.043 1.06991C148.776 1.41246 148.796 1.89774 148.998 2.28421Z" fill="#E1DFD3"/>
</g>
<defs>
<clipPath id="clip0">
<rect width="168.696" height="16" fill="white" transform="translate(0 0.5)"/>
</clipPath>
</defs>
</svg>
