<svg width="14" height="14" viewBox="0 0 14 14" fill="none" xmlns="http://www.w3.org/2000/svg">
<path fill-rule="evenodd" clip-rule="evenodd" d="M5.5 9.99997C7.98528 9.99997 10 7.98525 10 5.49997C10 3.01469 7.98528 0.999969 5.5 0.999969C3.01472 0.999969 1 3.01469 1 5.49997C1 7.98525 3.01472 9.99997 5.5 9.99997ZM5.5 11C8.53757 11 11 8.53754 11 5.49997C11 2.4624 8.53757 -3.05176e-05 5.5 -3.05176e-05C2.46243 -3.05176e-05 0 2.4624 0 5.49997C0 8.53754 2.46243 11 5.5 11Z" fill="#E1DFD3"/>
<path fill-rule="evenodd" clip-rule="evenodd" d="M12.6464 13.3535L8.64645 9.35354L9.35355 8.64643L13.3536 12.6464L12.6464 13.3535Z" fill="#E1DFD3"/>
</svg>
